<svg xmlns="http://www.w3.org/2000/svg" viewBox="0 0 64 64">
  <circle cx="32" cy="36" r="24" fill="#f97316"/>
  <circle cx="32" cy="36" r="24" fill="url(#g)"/>
  <defs>
    <radialGradient id="g" cx="40%" cy="35%" r="60%">
      <stop offset="0%" stop-color="#fdba74"/>
      <stop offset="100%" stop-color="#ea580c"/>
    </radialGradient>
  </defs>
  <ellipse cx="32" cy="36" rx="22" ry="22" fill="none" stroke="#c2410c" stroke-width="0.5" opacity="0.3"/>
  <path d="M32 12 C30 12 29 10 30 8 C31 6 33 6 34 8 C35 10 34 12 32 12Z" fill="#16a34a"/>
  <path d="M32 12 C34 11 37 9 39 7" stroke="#15803d" stroke-width="1.5" stroke-linecap="round" fill="none"/>
  <path d="M32 12 C30 10 29 8 30 6" stroke="#15803d" stroke-width="1" stroke-linecap="round" fill="none"/>
  <path d="M26 14 C24 13 22 14 21 16" stroke="#16a34a" stroke-width="1.2" stroke-linecap="round" fill="none" opacity="0.7"/>
  <ellipse cx="26" cy="30" rx="6" ry="8" fill="white" opacity="0.08" transform="rotate(-20 26 30)"/>
</svg>
